<mxfile host="app.diagrams.net" modified="2024-01-10T12:26:51.567Z" agent="Mozilla/5.0 (Windows NT 10.0; Win64; x64) AppleWebKit/537.36 (KHTML, like Gecko) Chrome/120.0.0.0 Safari/537.36 Edg/120.0.0.0" etag="TEX3O9yFXpuq6N8WEESg" version="22.1.17" type="device">
  <diagram name="Страница — 1" id="Dxq1hizs6cTyxPVdTfap">
    <mxGraphModel dx="1273" dy="703" grid="0" gridSize="10" guides="1" tooltips="1" connect="1" arrows="1" fold="1" page="1" pageScale="1" pageWidth="1000" pageHeight="1000" math="0" shadow="0">
      <root>
        <mxCell id="0" />
        <mxCell id="1" parent="0" />
        <mxCell id="aHE3U0kdrneRdvA0ayrh-1" value="Приложение" style="rounded=0;whiteSpace=wrap;html=1;verticalAlign=top;fontStyle=1" vertex="1" parent="1">
          <mxGeometry x="109" y="43" width="166" height="201" as="geometry" />
        </mxCell>
        <mxCell id="aHE3U0kdrneRdvA0ayrh-2" value="База данных" style="strokeWidth=2;html=1;shape=mxgraph.flowchart.database;whiteSpace=wrap;labelPosition=center;verticalLabelPosition=bottom;align=center;verticalAlign=top;" vertex="1" parent="1">
          <mxGeometry x="358" y="98.5" width="84" height="90" as="geometry" />
        </mxCell>
        <mxCell id="aHE3U0kdrneRdvA0ayrh-3" value="Пользовательский интерфейс" style="rounded=0;whiteSpace=wrap;html=1;" vertex="1" parent="1">
          <mxGeometry x="132" y="90" width="122" height="38" as="geometry" />
        </mxCell>
        <mxCell id="aHE3U0kdrneRdvA0ayrh-4" value="Вычислительный модуль" style="rounded=0;whiteSpace=wrap;html=1;" vertex="1" parent="1">
          <mxGeometry x="134" y="140" width="120" height="35" as="geometry" />
        </mxCell>
        <mxCell id="aHE3U0kdrneRdvA0ayrh-5" value="Модуль доступа к БД" style="rounded=0;whiteSpace=wrap;html=1;" vertex="1" parent="1">
          <mxGeometry x="132" y="187" width="120" height="35" as="geometry" />
        </mxCell>
        <mxCell id="aHE3U0kdrneRdvA0ayrh-7" style="edgeStyle=orthogonalEdgeStyle;rounded=0;orthogonalLoop=1;jettySize=auto;html=1;exitX=1;exitY=0.5;exitDx=0;exitDy=0;entryX=0;entryY=0.5;entryDx=0;entryDy=0;entryPerimeter=0;" edge="1" parent="1" source="aHE3U0kdrneRdvA0ayrh-1" target="aHE3U0kdrneRdvA0ayrh-2">
          <mxGeometry relative="1" as="geometry" />
        </mxCell>
      </root>
    </mxGraphModel>
  </diagram>
</mxfile>
